<svg width="171" height="183" viewBox="0 0 171 183" fill="none" xmlns="http://www.w3.org/2000/svg">
<g filter="url(#filter0_dddddd_13_130)">
<path d="M51.3217 126.78C51.9831 126.78 52.5301 126.56 52.9625 126.119C53.395 125.679 53.6112 125.121 53.6112 124.447C53.6112 123.773 53.395 123.216 52.9625 122.775C52.5301 122.334 51.9831 122.114 51.3217 122.114C50.6603 122.114 50.1134 122.334 49.6809 122.775C49.2485 123.216 49.0322 123.773 49.0322 124.447C49.0322 125.121 49.2485 125.679 49.6809 126.119C50.1134 126.56 50.6603 126.78 51.3217 126.78ZM46.7428 132.225C45.9033 132.225 45.1849 131.921 44.5876 131.312C43.9893 130.702 43.6901 129.969 43.6901 129.114V119.78C43.6901 118.925 43.9893 118.192 44.5876 117.582C45.1849 116.974 45.9033 116.669 46.7428 116.669H57.427C58.2665 116.669 58.9854 116.974 59.5837 117.582C60.181 118.192 60.4796 118.925 60.4796 119.78V129.114C60.4796 129.969 60.181 130.702 59.5837 131.312C58.9854 131.921 58.2665 132.225 57.427 132.225H46.7428ZM34.5322 138.447C33.6928 138.447 32.9739 138.143 32.3756 137.534C31.7783 136.924 31.4796 136.192 31.4796 135.336V113.558C31.4796 112.703 31.7783 111.97 32.3756 111.36C32.9739 110.752 33.6928 110.447 34.5322 110.447H55.9007C56.7401 110.447 57.459 110.752 58.0574 111.36C58.6546 111.97 58.9533 112.703 58.9533 113.558H46.7428C44.9366 113.558 43.4678 114.135 42.3363 115.288C41.2038 116.442 40.6375 117.94 40.6375 119.78V129.114C40.6375 130.955 41.2038 132.452 42.3363 133.605C43.4678 134.759 44.9366 135.336 46.7428 135.336H58.9533C58.9533 136.192 58.6546 136.924 58.0574 137.534C57.459 138.143 56.7401 138.447 55.9007 138.447H34.5322Z" fill="#292EA7"/>
</g>
<defs>
<filter id="filter0_dddddd_13_130" x="-78.1404" y="0.827141" width="248.24" height="247.24" filterUnits="userSpaceOnUse" color-interpolation-filters="sRGB">
<feFlood flood-opacity="0" result="BackgroundImageFix"/>
<feColorMatrix in="SourceAlpha" type="matrix" values="0 0 0 0 0 0 0 0 0 0 0 0 0 0 0 0 0 0 127 0" result="hardAlpha"/>
<feOffset/>
<feGaussianBlur stdDeviation="1.305"/>
<feColorMatrix type="matrix" values="0 0 0 0 0.027451 0 0 0 0 0 0 0 0 0 0.160784 0 0 0 1 0"/>
<feBlend mode="normal" in2="BackgroundImageFix" result="effect1_dropShadow_13_130"/>
<feColorMatrix in="SourceAlpha" type="matrix" values="0 0 0 0 0 0 0 0 0 0 0 0 0 0 0 0 0 0 127 0" result="hardAlpha"/>
<feOffset/>
<feGaussianBlur stdDeviation="2.61"/>
<feColorMatrix type="matrix" values="0 0 0 0 0.027451 0 0 0 0 0 0 0 0 0 0.160784 0 0 0 1 0"/>
<feBlend mode="normal" in2="effect1_dropShadow_13_130" result="effect2_dropShadow_13_130"/>
<feColorMatrix in="SourceAlpha" type="matrix" values="0 0 0 0 0 0 0 0 0 0 0 0 0 0 0 0 0 0 127 0" result="hardAlpha"/>
<feOffset/>
<feGaussianBlur stdDeviation="9.135"/>
<feColorMatrix type="matrix" values="0 0 0 0 0.027451 0 0 0 0 0 0 0 0 0 0.160784 0 0 0 1 0"/>
<feBlend mode="normal" in2="effect2_dropShadow_13_130" result="effect3_dropShadow_13_130"/>
<feColorMatrix in="SourceAlpha" type="matrix" values="0 0 0 0 0 0 0 0 0 0 0 0 0 0 0 0 0 0 127 0" result="hardAlpha"/>
<feOffset/>
<feGaussianBlur stdDeviation="18.27"/>
<feColorMatrix type="matrix" values="0 0 0 0 0.027451 0 0 0 0 0 0 0 0 0 0.160784 0 0 0 1 0"/>
<feBlend mode="normal" in2="effect3_dropShadow_13_130" result="effect4_dropShadow_13_130"/>
<feColorMatrix in="SourceAlpha" type="matrix" values="0 0 0 0 0 0 0 0 0 0 0 0 0 0 0 0 0 0 127 0" result="hardAlpha"/>
<feOffset/>
<feGaussianBlur stdDeviation="31.32"/>
<feColorMatrix type="matrix" values="0 0 0 0 0.027451 0 0 0 0 0 0 0 0 0 0.160784 0 0 0 1 0"/>
<feBlend mode="normal" in2="effect4_dropShadow_13_130" result="effect5_dropShadow_13_130"/>
<feColorMatrix in="SourceAlpha" type="matrix" values="0 0 0 0 0 0 0 0 0 0 0 0 0 0 0 0 0 0 127 0" result="hardAlpha"/>
<feOffset/>
<feGaussianBlur stdDeviation="54.81"/>
<feColorMatrix type="matrix" values="0 0 0 0 0.027451 0 0 0 0 0 0 0 0 0 0.160784 0 0 0 1 0"/>
<feBlend mode="normal" in2="effect5_dropShadow_13_130" result="effect6_dropShadow_13_130"/>
<feBlend mode="normal" in="SourceGraphic" in2="effect6_dropShadow_13_130" result="shape"/>
</filter>
</defs>
</svg>
