<svg width="164" height="177" viewBox="0 0 164 177" fill="none" xmlns="http://www.w3.org/2000/svg">
<g filter="url(#filter0_dddddd_13_147)">
<path d="M107.92 130.947C107.524 130.947 107.191 130.814 106.924 130.547C106.655 130.281 106.52 129.952 106.52 129.558V115.669C106.52 115.276 106.655 114.946 106.924 114.679C107.191 114.413 107.524 114.28 107.92 114.28H112.82C113.217 114.28 113.55 114.413 113.819 114.679C114.086 114.946 114.22 115.276 114.22 115.669V129.558C114.22 129.952 114.086 130.281 113.819 130.547C113.55 130.814 113.217 130.947 112.82 130.947H107.92ZM118.07 130.947C117.674 130.947 117.341 130.814 117.074 130.547C116.805 130.281 116.67 129.952 116.67 129.558V107.336C116.67 106.943 116.805 106.612 117.074 106.346C117.341 106.08 117.674 105.947 118.07 105.947H122.97C123.367 105.947 123.7 106.08 123.969 106.346C124.236 106.612 124.37 106.943 124.37 107.336V129.558C124.37 129.952 124.236 130.281 123.969 130.547C123.7 130.814 123.367 130.947 122.97 130.947H118.07ZM128.22 130.947C127.824 130.947 127.491 130.814 127.224 130.547C126.955 130.281 126.82 129.952 126.82 129.558V118.447C126.82 118.054 126.955 117.724 127.224 117.457C127.491 117.191 127.824 117.058 128.22 117.058H133.12C133.517 117.058 133.849 117.191 134.117 117.457C134.386 117.724 134.52 118.054 134.52 118.447V129.558C134.52 129.952 134.386 130.281 134.117 130.547C133.849 130.814 133.517 130.947 133.12 130.947H128.22Z" fill="#292EA7"/>
</g>
<defs>
<filter id="filter0_dddddd_13_147" x="0.680389" y="0.107147" width="239.68" height="236.68" filterUnits="userSpaceOnUse" color-interpolation-filters="sRGB">
<feFlood flood-opacity="0" result="BackgroundImageFix"/>
<feColorMatrix in="SourceAlpha" type="matrix" values="0 0 0 0 0 0 0 0 0 0 0 0 0 0 0 0 0 0 127 0" result="hardAlpha"/>
<feOffset/>
<feGaussianBlur stdDeviation="1.26"/>
<feColorMatrix type="matrix" values="0 0 0 0 0.027451 0 0 0 0 0 0 0 0 0 0.160784 0 0 0 1 0"/>
<feBlend mode="normal" in2="BackgroundImageFix" result="effect1_dropShadow_13_147"/>
<feColorMatrix in="SourceAlpha" type="matrix" values="0 0 0 0 0 0 0 0 0 0 0 0 0 0 0 0 0 0 127 0" result="hardAlpha"/>
<feOffset/>
<feGaussianBlur stdDeviation="2.52"/>
<feColorMatrix type="matrix" values="0 0 0 0 0.027451 0 0 0 0 0 0 0 0 0 0.160784 0 0 0 1 0"/>
<feBlend mode="normal" in2="effect1_dropShadow_13_147" result="effect2_dropShadow_13_147"/>
<feColorMatrix in="SourceAlpha" type="matrix" values="0 0 0 0 0 0 0 0 0 0 0 0 0 0 0 0 0 0 127 0" result="hardAlpha"/>
<feOffset/>
<feGaussianBlur stdDeviation="8.82"/>
<feColorMatrix type="matrix" values="0 0 0 0 0.027451 0 0 0 0 0 0 0 0 0 0.160784 0 0 0 1 0"/>
<feBlend mode="normal" in2="effect2_dropShadow_13_147" result="effect3_dropShadow_13_147"/>
<feColorMatrix in="SourceAlpha" type="matrix" values="0 0 0 0 0 0 0 0 0 0 0 0 0 0 0 0 0 0 127 0" result="hardAlpha"/>
<feOffset/>
<feGaussianBlur stdDeviation="17.64"/>
<feColorMatrix type="matrix" values="0 0 0 0 0.027451 0 0 0 0 0 0 0 0 0 0.160784 0 0 0 1 0"/>
<feBlend mode="normal" in2="effect3_dropShadow_13_147" result="effect4_dropShadow_13_147"/>
<feColorMatrix in="SourceAlpha" type="matrix" values="0 0 0 0 0 0 0 0 0 0 0 0 0 0 0 0 0 0 127 0" result="hardAlpha"/>
<feOffset/>
<feGaussianBlur stdDeviation="30.24"/>
<feColorMatrix type="matrix" values="0 0 0 0 0.027451 0 0 0 0 0 0 0 0 0 0.160784 0 0 0 1 0"/>
<feBlend mode="normal" in2="effect4_dropShadow_13_147" result="effect5_dropShadow_13_147"/>
<feColorMatrix in="SourceAlpha" type="matrix" values="0 0 0 0 0 0 0 0 0 0 0 0 0 0 0 0 0 0 127 0" result="hardAlpha"/>
<feOffset/>
<feGaussianBlur stdDeviation="52.92"/>
<feColorMatrix type="matrix" values="0 0 0 0 0.027451 0 0 0 0 0 0 0 0 0 0.160784 0 0 0 1 0"/>
<feBlend mode="normal" in2="effect5_dropShadow_13_147" result="effect6_dropShadow_13_147"/>
<feBlend mode="normal" in="SourceGraphic" in2="effect6_dropShadow_13_147" result="shape"/>
</filter>
</defs>
</svg>
