<svg width="271" height="272" viewBox="0 0 271 272" fill="none" xmlns="http://www.w3.org/2000/svg">
<g filter="url(#filter0_dddddd_13_122)">
<path d="M147.66 137.567C147.729 137.067 147.763 136.55 147.763 136C147.763 135.467 147.729 134.933 147.643 134.433L151.122 131.8C151.43 131.567 151.516 131.117 151.327 130.783L148.037 125.25C147.832 124.883 147.403 124.767 147.026 124.883L142.931 126.483C142.075 125.85 141.166 125.317 140.156 124.917L139.539 120.683C139.47 120.283 139.128 120 138.716 120H132.137C131.726 120 131.4 120.283 131.331 120.683L130.715 124.917C129.704 125.317 128.778 125.867 127.939 126.483L123.844 124.883C123.467 124.75 123.038 124.883 122.833 125.25L119.56 130.783C119.355 131.133 119.423 131.567 119.766 131.8L123.244 134.433C123.158 134.933 123.09 135.483 123.09 136C123.09 136.517 123.124 137.067 123.21 137.567L119.732 140.2C119.423 140.433 119.337 140.883 119.526 141.217L122.816 146.75C123.021 147.117 123.45 147.233 123.827 147.117L127.922 145.517C128.778 146.15 129.687 146.683 130.697 147.083L131.314 151.317C131.4 151.717 131.726 152 132.137 152H138.716C139.128 152 139.47 151.717 139.522 151.317L140.138 147.083C141.149 146.683 142.075 146.15 142.914 145.517L147.009 147.117C147.386 147.25 147.815 147.117 148.02 146.75L151.31 141.217C151.516 140.85 151.43 140.433 151.104 140.2L147.66 137.567ZM135.427 142C132.034 142 129.258 139.3 129.258 136C129.258 132.7 132.034 130 135.427 130C138.819 130 141.595 132.7 141.595 136C141.595 139.3 138.819 142 135.427 142Z" fill="#292EA7"/>
</g>
<defs>
<filter id="filter0_dddddd_13_122" x="0.110817" y="0.684303" width="270.631" height="270.631" filterUnits="userSpaceOnUse" color-interpolation-filters="sRGB">
<feFlood flood-opacity="0" result="BackgroundImageFix"/>
<feColorMatrix in="SourceAlpha" type="matrix" values="0 0 0 0 0 0 0 0 0 0 0 0 0 0 0 0 0 0 127 0" result="hardAlpha"/>
<feOffset/>
<feGaussianBlur stdDeviation="1.42043"/>
<feColorMatrix type="matrix" values="0 0 0 0 0.0156863 0 0 0 0 0.027451 0 0 0 0 0.164706 0 0 0 1 0"/>
<feBlend mode="normal" in2="BackgroundImageFix" result="effect1_dropShadow_13_122"/>
<feColorMatrix in="SourceAlpha" type="matrix" values="0 0 0 0 0 0 0 0 0 0 0 0 0 0 0 0 0 0 127 0" result="hardAlpha"/>
<feOffset/>
<feGaussianBlur stdDeviation="2.84085"/>
<feColorMatrix type="matrix" values="0 0 0 0 0.0156863 0 0 0 0 0.027451 0 0 0 0 0.164706 0 0 0 1 0"/>
<feBlend mode="normal" in2="effect1_dropShadow_13_122" result="effect2_dropShadow_13_122"/>
<feColorMatrix in="SourceAlpha" type="matrix" values="0 0 0 0 0 0 0 0 0 0 0 0 0 0 0 0 0 0 127 0" result="hardAlpha"/>
<feOffset/>
<feGaussianBlur stdDeviation="9.94298"/>
<feColorMatrix type="matrix" values="0 0 0 0 0.0156863 0 0 0 0 0.027451 0 0 0 0 0.164706 0 0 0 1 0"/>
<feBlend mode="normal" in2="effect2_dropShadow_13_122" result="effect3_dropShadow_13_122"/>
<feColorMatrix in="SourceAlpha" type="matrix" values="0 0 0 0 0 0 0 0 0 0 0 0 0 0 0 0 0 0 127 0" result="hardAlpha"/>
<feOffset/>
<feGaussianBlur stdDeviation="19.886"/>
<feColorMatrix type="matrix" values="0 0 0 0 0.0156863 0 0 0 0 0.027451 0 0 0 0 0.164706 0 0 0 1 0"/>
<feBlend mode="normal" in2="effect3_dropShadow_13_122" result="effect4_dropShadow_13_122"/>
<feColorMatrix in="SourceAlpha" type="matrix" values="0 0 0 0 0 0 0 0 0 0 0 0 0 0 0 0 0 0 127 0" result="hardAlpha"/>
<feOffset/>
<feGaussianBlur stdDeviation="34.0902"/>
<feColorMatrix type="matrix" values="0 0 0 0 0.0156863 0 0 0 0 0.027451 0 0 0 0 0.164706 0 0 0 1 0"/>
<feBlend mode="normal" in2="effect4_dropShadow_13_122" result="effect5_dropShadow_13_122"/>
<feColorMatrix in="SourceAlpha" type="matrix" values="0 0 0 0 0 0 0 0 0 0 0 0 0 0 0 0 0 0 127 0" result="hardAlpha"/>
<feOffset/>
<feGaussianBlur stdDeviation="59.6578"/>
<feColorMatrix type="matrix" values="0 0 0 0 0.0156863 0 0 0 0 0.027451 0 0 0 0 0.164706 0 0 0 1 0"/>
<feBlend mode="normal" in2="effect5_dropShadow_13_122" result="effect6_dropShadow_13_122"/>
<feBlend mode="normal" in="SourceGraphic" in2="effect6_dropShadow_13_122" result="shape"/>
</filter>
</defs>
</svg>
